<svg width="640" height="640" viewBox="0 0 640 640" fill="none" xmlns="http://www.w3.org/2000/svg">
<path d="M320 600C274.719 599.683 245.208 580.6 228.736 538.246C220.546 517.177 213.973 495.392 208.138 473.524C205.18 462.449 200.611 453.258 193.844 446.156C186.742 439.389 177.551 434.821 166.476 431.862C144.608 426.027 122.823 419.455 101.754 411.264C59.4003 394.792 40.3174 365.281 40 320C40.3174 274.719 59.4003 245.208 101.754 228.736C122.823 220.546 144.608 213.973 166.476 208.138C177.551 205.18 186.742 200.611 193.844 193.844C200.611 186.742 205.18 177.551 208.138 166.476C213.973 144.608 220.546 122.823 228.736 101.754C245.208 59.4003 274.719 40.3174 320 40C365.281 40.3174 394.792 59.4003 411.264 101.754C419.455 122.823 426.027 144.608 431.862 166.476C434.821 177.551 439.389 186.742 446.156 193.844C453.258 200.611 462.449 205.18 473.524 208.138C495.392 213.973 517.177 220.546 538.246 228.736C580.6 245.208 599.683 274.719 600 320C599.683 365.281 580.6 394.792 538.246 411.264C517.177 419.455 495.392 426.027 473.524 431.862C462.449 434.821 453.258 439.389 446.156 446.156C439.389 453.258 434.821 462.449 431.862 473.524C426.027 495.392 419.455 517.177 411.264 538.246C394.792 580.6 365.281 599.683 320 600Z" fill="#FF0A8C"/>
</svg>
